<svg width="110" height="29" viewBox="0 0 110 29" fill="none" xmlns="http://www.w3.org/2000/svg">
<path d="M38.032 23.24C36.336 23.24 34.8 22.872 33.424 22.136C32.064 21.384 30.992 20.352 30.208 19.04C29.44 17.728 29.056 16.248 29.056 14.6C29.056 12.952 29.448 11.472 30.232 10.16C31.016 8.848 32.088 7.824 33.448 7.088C34.824 6.336 36.36 5.96 38.056 5.96C39.432 5.96 40.688 6.2 41.824 6.68C42.96 7.16 43.92 7.856 44.704 8.768L42.688 10.664C41.472 9.352 39.976 8.696 38.2 8.696C37.048 8.696 36.016 8.952 35.104 9.464C34.192 9.96 33.48 10.656 32.968 11.552C32.456 12.448 32.2 13.464 32.2 14.6C32.2 15.736 32.456 16.752 32.968 17.648C33.48 18.544 34.192 19.248 35.104 19.76C36.016 20.256 37.048 20.504 38.2 20.504C39.976 20.504 41.472 19.84 42.688 18.512L44.704 20.432C43.92 21.344 42.952 22.04 41.8 22.52C40.664 23 39.408 23.24 38.032 23.24ZM58.2379 19.112H49.8379L48.1819 23H44.9659L52.5259 6.2H55.5979L63.1819 23H59.9179L58.2379 19.112ZM57.2059 16.664L54.0379 9.32L50.8939 16.664H57.2059ZM80.2465 6.2V23H77.6785L68.4145 11.624V23H65.3185V6.2H67.8865L77.1505 17.576V6.2H80.2465ZM84.7482 6.2H92.0922C93.8842 6.2 95.4762 6.552 96.8682 7.256C98.2602 7.944 99.3402 8.928 100.108 10.208C100.876 11.472 101.26 12.936 101.26 14.6C101.26 16.264 100.876 17.736 100.108 19.016C99.3402 20.28 98.2602 21.264 96.8682 21.968C95.4762 22.656 93.8842 23 92.0922 23H84.7482V6.2ZM91.9482 20.36C93.1802 20.36 94.2602 20.128 95.1882 19.664C96.1322 19.184 96.8522 18.512 97.3482 17.648C97.8602 16.768 98.1162 15.752 98.1162 14.6C98.1162 13.448 97.8602 12.44 97.3482 11.576C96.8522 10.696 96.1322 10.024 95.1882 9.56C94.2602 9.08 93.1802 8.84 91.9482 8.84H87.8682V20.36H91.9482ZM104.576 6.2H107.696V23H104.576V6.2Z" fill="#262626"/>
<path d="M12 6.55975L2 11.5091L12 16.4585L22 11.5091L12 6.55975Z" stroke="black" stroke-width="2" stroke-linecap="round" stroke-linejoin="round"/>
<path d="M2 21.4079L12 26.3573L22 21.4079" stroke="black" stroke-width="2" stroke-linecap="round" stroke-linejoin="round"/>
<path d="M2 16.4585L12 21.4079L22 16.4585" stroke="black" stroke-width="2" stroke-linecap="round" stroke-linejoin="round"/>
</svg>
